<svg xmlns="http://www.w3.org/2000/svg" xmlns:xlink="http://www.w3.org/1999/xlink" viewBox="0 0 36 36">
<title>🌱: seedling (U+1F331) - emojiall.com</title>
<style>svg{stroke:#edf2f6;animation:dashoffset 10s both infinite,fill-opacity 10s both infinite,stroke-opacity 10s both infinite;stroke-dasharray:500%;stroke-dashoffset:500%}@keyframes stroke-opacity{2%,25%{stroke-opacity:.75;stroke-width:2%}100%,75%{stroke-opacity:0;stroke-width:0}}@keyframes fill-opacity{10%,25%{fill-opacity:0}0%,100%,50%{fill-opacity:1}}@keyframes dashoffset{0%,2%{stroke-dashoffset:500%}100%{stroke-dashoffset:0%}}</style>
<path fill="#77B255" d="M22.911 14.398c-1.082.719-2.047 1.559-2.88 2.422-.127-4.245-1.147-9.735-6.772-12.423C12.146-1.658-.833 1.418.328 2.006c2.314 1.17 3.545 4.148 5.034 5.715 2.653 2.792 5.603 2.964 7.071.778 3.468 2.254 3.696 6.529 3.59 11.099-.012.505-.023.975-.023 1.402v14c0 1.104 4 1.104 4 0V23.51c.542-.954 2.122-3.505 4.43-5.294 1.586 1.393 4.142.948 6.463-1.495 1.489-1.567 2.293-4.544 4.607-5.715 1.221-.618-12.801-3.994-12.589 3.392z"/>
<a xlink:href="https://www.emojiall.com/en/emoji/%F0%9F%8C%B1"><text x="36" y="34" font-size="1px" fill="#888da8" text-anchor="end" font-family="apple color emoji,segoe ui emoji,noto color emoji,android emoji,emojisymbols,emojione mozilla,twemoji mozilla,segoe ui symbol,Noto Color Emoji Compat,emoji,sans-serif">🌱</text></a>
<a xlink:href="https://www.emojiall.com/"><text x="36" y="35" font-size="0.8px" fill="#888da8" text-anchor="end"><title>www.emojiall.com</title>emojiall.com</text></a>
</svg>