<svg id="svg" version="1.1" xmlns="http://www.w3.org/2000/svg" xmlns:xlink="http://www.w3.org/1999/xlink" width="400" height="400" viewBox="0, 0, 400,400"><g id="svgg"><path id="path0" d="M44.922 1.520 C 25.042 6.767,9.524 21.244,2.584 41.016 L 0.391 47.266 0.391 200.000 L 0.391 352.734 2.584 358.984 C 8.880 376.923,22.643 390.797,40.474 397.178 L 47.266 399.609 200.000 399.609 L 352.734 399.609 358.984 397.416 C 376.880 391.135,390.813 377.313,397.178 359.526 L 399.609 352.734 399.609 200.000 L 399.609 47.266 397.160 40.421 C 390.809 22.669,377.315 9.188,359.526 2.822 L 352.734 0.391 201.563 0.233 C 56.757 0.083,50.160 0.137,44.922 1.520 M300.568 92.791 L 294.531 98.863 294.531 108.498 C 294.531 117.636,294.632 118.254,296.484 120.455 L 298.438 122.776 298.438 164.891 L 298.437 207.007 296.158 209.558 C 292.777 213.341,286.129 213.341,282.748 209.558 L 280.469 207.007 280.469 164.940 L 280.469 122.874 282.348 120.105 C 283.727 118.073,284.378 115.730,284.792 111.311 L 285.357 105.288 268.067 119.909 C 258.558 127.951,250.633 134.763,250.457 135.048 C 250.281 135.334,251.186 139.605,252.468 144.541 C 258.477 167.671,255.246 178.077,236.328 196.523 C 216.300 216.052,216.674 219.746,240.719 239.958 C 277.594 270.955,272.977 312.885,230.753 330.463 C 198.817 343.758,149.899 336.874,131.982 316.563 C 105.992 287.103,140.367 248.440,197.124 243.297 L 203.100 242.756 200.656 239.972 C 195.220 233.781,193.675 226.758,195.881 218.271 L 197.325 212.714 189.600 211.362 C 161.153 206.383,143.855 191.575,138.037 167.224 L 136.354 160.176 109.823 159.971 L 83.293 159.766 124.654 123.297 L 166.016 86.829 236.310 86.774 L 306.604 86.719 300.568 92.791 M182.286 119.517 C 165.980 122.985,158.023 142.078,164.206 162.901 C 175.928 202.381,223.723 210.763,228.902 174.247 C 233.161 144.220,207.545 114.146,182.286 119.517 M195.703 255.047 C 172.774 259.240,154.159 274.044,152.580 289.342 C 149.154 322.541,226.115 327.827,241.941 295.479 C 252.294 274.318,224.280 249.822,195.703 255.047 " stroke="none" fill="#000000" fill-rule="evenodd"></path></g></svg>